<?xml version="1.0" encoding="UTF-8"?>
<svg id="_레이어_2" data-name="레이어 2" xmlns="http://www.w3.org/2000/svg" viewBox="0 0 223.71 116.52">
  <defs>
    <style>
      .cls-1 {
        fill: #b39745;
      }

      .cls-2 {
        fill: #e56434;
      }

      .cls-3 {
        fill: #015197;
      }

      .cls-4 {
        fill: #11949c;
      }

      .cls-5 {
        fill: #888;
      }
    </style>
  </defs>
  <g id="_레이어_1-2" data-name="레이어 1">
    <g>
      <g>
        <g>
          <polygon class="cls-5" points="107.53 61.5 107.53 58.48 111.66 58.48 111.66 73.29 107.53 73.29 107.53 70.53 102.52 70.53 102.52 67.14 107.53 67.14 107.53 64.89 103.11 64.89 103.11 61.5 107.53 61.5"/>
          <g>
            <path class="cls-5" d="M96.28,65.53c-.67,1-1.48,1.91-2.43,2.73-.95,.82-2.02,1.54-3.21,2.17-1.19,.62-2.44,1.16-3.77,1.62l1.84,3.12c1.86-.59,3.61-1.38,5.25-2.35,1.64-.97,3.07-2.12,4.29-3.46,1.22-1.34,2.18-2.86,2.89-4.59,.33-.79,.57-1.62,.75-2.49h-4.12c-.34,1.18-.84,2.26-1.5,3.25Z"/>
            <path class="cls-2" d="M88.71,58.86v3.38h9.08s0,.02,0,.03h4.12c.21-1.03,.32-2.12,.32-3.26v-.15h-13.51Z"/>
          </g>
          <g>
            <path class="cls-5" d="M116.74,69.88l1.9,3.15c1.92-.57,3.73-1.23,5.43-1.96,1.7-.73,3.29-1.5,4.75-2.32,.81,.47,1.68,.92,2.61,1.34,.93,.42,1.87,.8,2.82,1.14,.95,.35,1.88,.66,2.81,.93,.92,.28,1.78,.52,2.57,.71l1.75-3.32c-.61-.12-1.28-.28-1.99-.49-.71-.21-1.46-.44-2.23-.71-.77-.27-1.55-.56-2.33-.88-.78-.32-1.54-.64-2.27-.98,1.62-1.09,2.97-2.12,4.04-3.1,.44-.4,.82-.77,1.15-1.11h-5.64c-2.03,1.57-4.36,2.99-7,4.26-2.65,1.28-5.44,2.39-8.37,3.34Z"/>
            <polygon class="cls-5" points="115.61 75.37 115.61 78.75 126.89 78.75 126.89 85.55 131.02 85.55 131.02 78.75 142.44 78.75 142.44 75.37 115.61 75.37"/>
            <path class="cls-1" d="M138.85,60.94c.38-.57,.48-1.06,.33-1.47-.16-.41-.52-.61-1.1-.61h-19v3.38h13.06s-.03,.02-.04,.03h5.64c.48-.5,.85-.95,1.11-1.33Z"/>
          </g>
          <g>
            <path class="cls-5" d="M160.17,79.91v-3.83h9.5v-3.38h-18.32v-3.32h17.72v-6.8h-4.19v3.41h-17.66v7.9c0,.85,.19,1.43,.56,1.74,.38,.31,.95,.46,1.72,.46h6.53v3.83h-11.34v3.38h26.89v-3.38h-11.43Z"/>
            <polygon class="cls-4" points="169.07 59.16 147.16 59.16 147.16 62.54 164.89 62.54 164.89 62.57 169.07 62.57 169.07 59.16"/>
          </g>
          <g>
            <polygon class="cls-5" points="203.85 85.7 207.68 85.7 207.68 65.89 203.85 59.19 203.85 85.7"/>
            <polygon class="cls-5" points="219.88 59.19 219.88 79.02 223.71 85.7 223.71 59.19 219.88 59.19"/>
            <polygon class="cls-3" points="219.88 79.05 207.53 59.19 203.85 59.19 207.68 65.89 207.68 65.84 220 85.7 223.71 85.7 219.88 79.02 219.88 79.05"/>
          </g>
          <path class="cls-5" d="M102.72,73.29c-3.76,0-6.81,3.05-6.81,6.81s3.05,6.81,6.81,6.81,6.81-3.05,6.81-6.81-3.05-6.81-6.81-6.81Zm0,10.11c-1.82,0-3.3-1.48-3.3-3.3s1.48-3.3,3.3-3.3,3.3,1.48,3.3,3.3-1.48,3.3-3.3,3.3Z"/>
          <path class="cls-5" d="M188.84,59.19c-7.32,0-13.25,5.93-13.25,13.25s5.93,13.25,13.25,13.25,13.25-5.93,13.25-13.25-5.93-13.25-13.25-13.25Zm0,22.27c-4.98,0-9.01-4.03-9.01-9.01s4.03-9.01,9.01-9.01,9.01,4.03,9.01,9.01-4.03,9.01-9.01,9.01Z"/>
        </g>
        <g>
          <rect class="cls-2" x="5.73" y="49.99" width="54.96" height="13.28"/>
          <path class="cls-3" d="M6.92,114.51c0,.67,.01,1.34,.02,2.01H58.61c0-.67,.02-1.34,.02-2.01,0-3.78-.14-7.53-.39-11.27H7.32c-.25,3.73-.39,7.49-.39,11.27Z"/>
          <path class="cls-1" d="M12.49,68.11c-.93,4.38-1.78,8.81-2.54,13.28H55.6c-.75-4.47-1.61-8.9-2.54-13.28H12.49Z"/>
          <path class="cls-4" d="M7.66,98.75H27.86v-9.23h10.72v9.23h19.31c-.41-4.46-.96-8.89-1.63-13.28H9.3c-.67,4.39-1.23,8.82-1.63,13.28Z"/>
        </g>
        <g>
          <path class="cls-5" d="M86.99,100.9c0-.81,.11-1.59,.34-2.33,.22-.74,.57-1.39,1.03-1.96,.46-.56,1.04-1.01,1.76-1.34,.71-.33,1.55-.5,2.53-.5,.68,0,1.31,.1,1.87,.3,.56,.2,1.1,.48,1.61,.86l-1.06,1.43c-.31-.27-.68-.49-1.1-.67-.42-.18-.87-.26-1.36-.26-.63,0-1.17,.12-1.63,.37s-.83,.57-1.13,.99c-.3,.41-.52,.89-.67,1.43s-.22,1.1-.22,1.69,.07,1.15,.22,1.69,.37,1.02,.67,1.43c.3,.42,.68,.75,1.13,.99,.45,.25,1,.37,1.63,.37,.86,0,1.59-.14,2.21-.42v-3.46h-2.98v-1.65h4.92v5.79c-.25,.24-.53,.44-.86,.61-.33,.17-.67,.31-1.04,.43-.37,.12-.75,.21-1.13,.26-.38,.06-.75,.09-1.09,.09-.97,0-1.81-.17-2.53-.51-.71-.34-1.3-.79-1.76-1.35-.46-.56-.8-1.21-1.03-1.96-.22-.74-.34-1.52-.34-2.33Z"/>
          <path class="cls-5" d="M102.05,101.8l-4.1-6.93h2.13l2.97,5.13,3.03-5.13h2.1l-4.15,6.91v5.08h-1.97v-5.07Z"/>
          <path class="cls-5" d="M111.67,101.51v3.69h5.72v1.67h-7.71v-11.99h7.44v1.67h-5.45v3.33h5.2v1.64h-5.2Z"/>
          <path class="cls-5" d="M124.24,107.06c-.77,0-1.48-.14-2.12-.41-.65-.27-1.2-.67-1.67-1.19-.46-.52-.83-1.15-1.08-1.91-.26-.75-.38-1.61-.38-2.56s.13-1.86,.38-2.64c.26-.77,.61-1.43,1.07-1.96s1.01-.93,1.66-1.21c.65-.28,1.36-.42,2.14-.42s1.49,.14,2.14,.42c.65,.28,1.2,.68,1.66,1.21s.82,1.18,1.07,1.96,.38,1.65,.38,2.64-.13,1.8-.38,2.56c-.26,.75-.62,1.39-1.08,1.91-.46,.52-1.02,.91-1.67,1.19-.65,.27-1.36,.41-2.12,.41Zm0-10.69c-.56,0-1.04,.12-1.44,.36-.41,.24-.75,.57-1.02,.99-.27,.42-.48,.91-.61,1.48-.13,.57-.2,1.17-.2,1.81s.07,1.23,.22,1.78c.14,.54,.36,1.02,.63,1.41,.28,.4,.62,.71,1.03,.93,.41,.22,.87,.34,1.39,.34s.99-.11,1.39-.34,.75-.53,1.03-.93c.28-.4,.49-.87,.63-1.41,.14-.55,.22-1.14,.22-1.78s-.07-1.25-.2-1.81c-.13-.57-.34-1.06-.61-1.48s-.61-.75-1.02-.99c-.41-.24-.89-.36-1.44-.36Z"/>
          <path class="cls-5" d="M140.56,106.87h-2.45l-4.7-9.68v9.68h-1.89v-11.99h2.47l4.68,9.59v-9.59h1.89v11.99Z"/>
          <path class="cls-5" d="M142.49,100.9c0-.81,.11-1.59,.34-2.33,.22-.74,.57-1.39,1.03-1.96,.46-.56,1.04-1.01,1.76-1.34,.71-.33,1.55-.5,2.53-.5,.68,0,1.31,.1,1.87,.3,.56,.2,1.1,.48,1.61,.86l-1.06,1.43c-.31-.27-.68-.49-1.1-.67-.42-.18-.87-.26-1.36-.26-.63,0-1.17,.12-1.63,.37s-.83,.57-1.13,.99c-.3,.41-.52,.89-.67,1.43s-.22,1.1-.22,1.69,.07,1.15,.22,1.69,.37,1.02,.67,1.43c.3,.42,.68,.75,1.13,.99,.45,.25,1,.37,1.63,.37,.86,0,1.59-.14,2.21-.42v-3.46h-2.98v-1.65h4.92v5.79c-.25,.24-.53,.44-.86,.61-.33,.17-.67,.31-1.04,.43-.37,.12-.75,.21-1.13,.26-.38,.06-.75,.09-1.09,.09-.97,0-1.81-.17-2.53-.51-.71-.34-1.3-.79-1.76-1.35-.46-.56-.8-1.21-1.03-1.96-.22-.74-.34-1.52-.34-2.33Z"/>
          <path class="cls-5" d="M158.81,94.87v8.05c0,.8-.1,1.47-.3,2s-.46,.95-.8,1.27c-.34,.31-.74,.54-1.19,.67-.46,.13-.95,.2-1.46,.2-.31,0-.64-.02-.99-.07-.35-.05-.63-.12-.86-.2l.27-1.62c.21,.05,.45,.1,.71,.14,.26,.04,.51,.06,.75,.06,.29,0,.55-.03,.78-.1,.23-.06,.43-.19,.59-.37,.16-.18,.29-.44,.38-.76,.09-.33,.14-.76,.14-1.29v-7.98h1.99Z"/>
          <path class="cls-5" d="M165.64,107.03c-.61,0-1.18-.09-1.72-.26-.53-.18-1-.46-1.4-.84s-.72-.88-.95-1.48c-.23-.6-.35-1.33-.35-2.19v-7.38h1.99v7.6c0,.52,.06,.97,.18,1.34,.12,.37,.28,.67,.5,.9,.21,.23,.47,.4,.77,.5,.3,.1,.63,.15,.98,.15s.68-.05,.98-.15c.3-.1,.56-.27,.77-.5,.21-.23,.38-.53,.5-.9,.12-.37,.18-.81,.18-1.34v-7.6h1.99v7.38c0,.86-.11,1.58-.34,2.19-.23,.6-.54,1.1-.95,1.48s-.87,.67-1.4,.84c-.53,.18-1.11,.26-1.72,.26Z"/>
          <path class="cls-5" d="M176.49,94.87c1.28,0,2.24,.31,2.88,.92,.64,.61,.95,1.52,.95,2.7,0,.91-.2,1.66-.59,2.24-.39,.59-.97,.99-1.74,1.2l3.17,4.92h-2.15l-3.08-4.73h-1.44v4.73h-1.96v-11.99h3.94Zm-.06,5.61c.59,0,1.06-.15,1.42-.46,.36-.3,.54-.8,.54-1.5s-.18-1.21-.54-1.52c-.36-.31-.83-.46-1.42-.46h-1.92v3.94h1.92Z"/>
          <path class="cls-5" d="M187.27,107.06c-.77,0-1.48-.14-2.12-.41-.65-.27-1.2-.67-1.67-1.19-.46-.52-.83-1.15-1.08-1.91-.26-.75-.38-1.61-.38-2.56s.13-1.86,.38-2.64c.26-.77,.61-1.43,1.07-1.96s1.01-.93,1.66-1.21c.65-.28,1.36-.42,2.14-.42s1.49,.14,2.14,.42c.65,.28,1.2,.68,1.66,1.21s.82,1.18,1.07,1.96,.38,1.65,.38,2.64-.13,1.8-.38,2.56c-.26,.75-.62,1.39-1.08,1.91-.46,.52-1.02,.91-1.67,1.19-.65,.27-1.36,.41-2.12,.41Zm0-10.69c-.56,0-1.04,.12-1.44,.36-.41,.24-.75,.57-1.02,.99-.27,.42-.48,.91-.61,1.48-.13,.57-.2,1.17-.2,1.81s.07,1.23,.22,1.78c.14,.54,.36,1.02,.63,1.41,.28,.4,.62,.71,1.03,.93,.41,.22,.87,.34,1.39,.34s.99-.11,1.39-.34,.75-.53,1.03-.93c.28-.4,.49-.87,.63-1.41,.14-.55,.22-1.14,.22-1.78s-.07-1.25-.2-1.81c-.13-.57-.34-1.06-.61-1.48s-.61-.75-1.02-.99c-.41-.24-.89-.36-1.44-.36Z"/>
          <path class="cls-5" d="M194.32,100.07h5.39v1.59h-5.39v-1.59Z"/>
          <path class="cls-5" d="M206.78,107.06c-.77,0-1.48-.14-2.12-.41-.65-.27-1.2-.67-1.67-1.19-.46-.52-.83-1.15-1.08-1.91-.26-.75-.38-1.61-.38-2.56s.13-1.86,.38-2.64c.26-.77,.61-1.43,1.07-1.96s1.01-.93,1.66-1.21c.65-.28,1.36-.42,2.14-.42s1.49,.14,2.14,.42c.65,.28,1.2,.68,1.66,1.21s.82,1.18,1.07,1.96,.38,1.65,.38,2.64-.13,1.8-.38,2.56c-.26,.75-.62,1.39-1.08,1.91-.46,.52-1.02,.91-1.67,1.19-.65,.27-1.36,.41-2.12,.41Zm0-10.69c-.56,0-1.04,.12-1.44,.36-.41,.24-.75,.57-1.02,.99-.27,.42-.48,.91-.61,1.48-.13,.57-.2,1.17-.2,1.81s.07,1.23,.22,1.78c.14,.54,.36,1.02,.63,1.41,.28,.4,.62,.71,1.03,.93,.41,.22,.87,.34,1.39,.34s.99-.11,1.39-.34,.75-.53,1.03-.93c.28-.4,.49-.87,.63-1.41,.14-.55,.22-1.14,.22-1.78s-.07-1.25-.2-1.81c-.13-.57-.34-1.06-.61-1.48s-.61-.75-1.02-.99c-.41-.24-.89-.36-1.44-.36Z"/>
          <path class="cls-5" d="M223.1,106.87h-2.45l-4.7-9.68v9.68h-1.89v-11.99h2.47l4.68,9.59v-9.59h1.89v11.99Z"/>
        </g>
      </g>
      <path class="cls-1" d="M40.36,31.46l.49,1.51c.05,.14,.17,.23,.32,.23h1.59c.33,0,.46,.42,.2,.61l-1.28,.93c-.12,.09-.17,.24-.12,.38l.49,1.51c.1,.31-.26,.57-.52,.38l-1.28-.93c-.12-.09-.28-.09-.4,0l-1.28,.93c-.26,.19-.62-.07-.52-.38l.49-1.51c.05-.14,0-.29-.12-.38l-1.28-.93c-.26-.19-.13-.61,.2-.61h1.59c.15,0,.28-.09,.32-.23l.49-1.51c.1-.31,.54-.31,.64,0Z"/>
      <path class="cls-1" d="M60.39,37.97l.49,1.51c.05,.14,.17,.23,.32,.23h1.59c.33,0,.46,.42,.2,.61l-1.28,.93c-.12,.09-.17,.24-.12,.38l.49,1.51c.1,.31-.26,.57-.52,.38l-1.28-.93c-.12-.09-.28-.09-.4,0l-1.28,.93c-.26,.19-.62-.07-.52-.38l.49-1.51c.05-.14,0-.29-.12-.38l-1.28-.93c-.26-.19-.13-.61,.2-.61h1.59c.15,0,.28-.09,.32-.23l.49-1.51c.1-.31,.54-.31,.64,0Z"/>
      <path class="cls-1" d="M66.98,25.61l.49,1.51c.05,.14,.17,.23,.32,.23h1.59c.33,0,.46,.42,.2,.61l-1.28,.93c-.12,.09-.17,.24-.12,.38l.49,1.51c.1,.31-.26,.57-.52,.38l-1.28-.93c-.12-.09-.28-.09-.4,0l-1.28,.93c-.26,.19-.62-.07-.52-.38l.49-1.51c.05-.14,0-.29-.12-.38l-1.28-.93c-.26-.19-.13-.61,.2-.61h1.59c.15,0,.28-.09,.32-.23l.49-1.51c.1-.31,.54-.31,.64,0Z"/>
      <path class="cls-1" d="M41.07,17.26l.49,1.51c.05,.14,.17,.23,.32,.23h1.59c.33,0,.46,.42,.2,.61l-1.28,.93c-.12,.09-.17,.24-.12,.38l.49,1.51c.1,.31-.26,.57-.52,.38l-1.28-.93c-.12-.09-.28-.09-.4,0l-1.28,.93c-.26,.19-.62-.07-.52-.38l.49-1.51c.05-.14,0-.29-.12-.38l-1.28-.93c-.26-.19-.13-.61,.2-.61h1.59c.15,0,.28-.09,.32-.23l.49-1.51c.1-.31,.54-.31,.64,0Z"/>
      <path class="cls-1" d="M29.97,11l.49,1.51c.05,.14,.17,.23,.32,.23h1.59c.33,0,.46,.42,.2,.61l-1.28,.93c-.12,.09-.17,.24-.12,.38l.49,1.51c.1,.31-.26,.57-.52,.38l-1.28-.93c-.12-.09-.28-.09-.4,0l-1.28,.93c-.26,.19-.62-.07-.52-.38l.49-1.51c.05-.14,0-.29-.12-.38l-1.28-.93c-.26-.19-.13-.61,.2-.61h1.59c.15,0,.28-.09,.32-.23l.49-1.51c.1-.31,.54-.31,.64,0Z"/>
      <path class="cls-1" d="M21.8,3.16l.49,1.51c.05,.14,.17,.23,.32,.23h1.59c.33,0,.46,.42,.2,.61l-1.28,.93c-.12,.09-.17,.24-.12,.38l.49,1.51c.1,.31-.26,.57-.52,.38l-1.28-.93c-.12-.09-.28-.09-.4,0l-1.28,.93c-.26,.19-.62-.07-.52-.38l.49-1.51c.05-.14,0-.29-.12-.38l-1.28-.93c-.26-.19-.13-.61,.2-.61h1.59c.15,0,.28-.09,.32-.23l.49-1.51c.1-.31,.54-.31,.64,0Z"/>
      <path class="cls-1" d="M3.38,.23l.49,1.51c.05,.14,.17,.23,.32,.23h1.59c.33,0,.46,.42,.2,.61l-1.28,.93c-.12,.09-.17,.24-.12,.38l.49,1.51c.1,.31-.26,.57-.52,.38l-1.28-.93c-.12-.09-.28-.09-.4,0l-1.28,.93c-.26,.19-.62-.07-.52-.38l.49-1.51c.05-.14,0-.29-.12-.38L.14,2.59c-.26-.19-.13-.61,.2-.61H1.93c.15,0,.28-.09,.32-.23L2.74,.23c.1-.31,.54-.31,.64,0Z"/>
    </g>
  </g>
</svg>